<?xml version="1.0" encoding="UTF-8"?>
<svg version="1.1" xmlns="http://www.w3.org/2000/svg" width="512" height="512">
<path d="M0 0 C1.15257294 -0.00274933 2.30514587 -0.00549866 3.49264526 -0.0083313 C5.36783844 0.00245453 5.36783844 0.00245453 7.28091431 0.01345825 C8.62168367 0.0140229 9.96245365 0.01370476 11.30322266 0.01257324 C14.93090544 0.01200082 18.55845521 0.0237371 22.18610716 0.03772116 C25.98175089 0.05024705 29.77739787 0.05140048 33.57305908 0.05377197 C40.75524675 0.05998129 47.93737333 0.07638466 55.11953413 0.09647095 C63.29846915 0.11884705 71.47740713 0.12982768 79.65636516 0.13986182 C96.47608046 0.16075139 113.29571165 0.19742075 130.11538696 0.24050903 C130.11538696 10.80050903 130.11538696 21.36050903 130.11538696 32.24050903 C87.87538696 32.24050903 45.63538696 32.24050903 2.11538696 32.24050903 C2.11538696 116.72050903 2.11538696 201.20050903 2.11538696 288.24050903 C149.95538696 288.24050903 297.79538696 288.24050903 450.11538696 288.24050903 C450.11538696 203.76050903 450.11538696 119.28050903 450.11538696 32.24050903 C407.87538696 32.24050903 365.63538696 32.24050903 322.11538696 32.24050903 C322.11538696 21.68050903 322.11538696 11.12050903 322.11538696 0.24050903 C339.67488828 0.15007861 357.23418966 0.07645157 374.79385948 0.03326035 C382.94783259 0.01266939 391.10165033 -0.0153845 399.25552368 -0.06124878 C406.36569026 -0.10122317 413.47574427 -0.12694897 420.58602011 -0.13584495 C424.34796888 -0.14104186 428.1095957 -0.15318315 431.87144089 -0.18241119 C435.418984 -0.20974847 438.96607538 -0.21789951 442.51371384 -0.21192169 C444.42268414 -0.21353093 446.33160628 -0.23495735 448.240448 -0.25717163 C457.16184894 -0.21481179 463.93371733 1.4259237 471.36538696 6.42800903 C480.31816844 15.58426281 482.41626677 23.92111215 482.3828125 36.44248962 C482.38734361 37.682666 482.39187473 38.92284237 482.39654315 40.20059985 C482.40700565 43.63581614 482.40851432 47.0708229 482.40615439 50.50604022 C482.40574588 54.21372322 482.41678865 57.92137511 482.42626953 61.62904358 C482.44287293 68.89039249 482.44837878 76.15170894 482.44949429 83.41307525 C482.45044506 89.31627348 482.45455682 95.21946102 482.46089554 101.12265587 C482.47850604 117.86423008 482.48773469 134.60577866 482.48623459 151.3473622 C482.48611472 152.70079679 482.48611472 152.70079679 482.48599243 154.08157349 C482.48591067 154.98496657 482.48582891 155.88835966 482.48574467 156.8191283 C482.48493179 171.4593934 482.50407037 186.09955561 482.53226916 200.73979095 C482.56100394 215.77710672 482.57480914 230.81437231 482.57308161 245.85171622 C482.57241792 254.29211153 482.57790102 262.73239898 482.59943771 271.17276955 C482.61765731 278.35912503 482.62199048 285.54532376 482.60841887 292.73169235 C482.60189313 296.39666603 482.60175741 300.06133903 482.61912537 303.72628403 C482.63777904 307.70352071 482.62529117 311.6803194 482.60986328 315.65757751 C482.62015041 316.81011751 482.63043753 317.9626575 482.64103639 319.15012294 C482.55924272 328.69377808 479.79230165 337.19265464 473.11538696 344.24050903 C466.06043346 349.91060129 459.77151714 352.49390273 450.6362915 352.48101807 C449.90429263 352.48272692 449.17229377 352.48443577 448.41811311 352.4861964 C445.97677129 352.4894784 443.53570717 352.47850905 441.09439087 352.46755981 C439.33983364 352.46699542 437.58527595 352.46731281 435.83071899 352.46844482 C431.07498612 352.46901824 426.3193543 352.45726569 421.56364489 352.44329691 C416.59085637 352.43078773 411.61806549 352.4296189 406.64526367 352.42724609 C397.23187706 352.42103188 387.81853694 352.40462184 378.4051708 352.38454711 C367.68698333 352.3621863 356.96879364 352.35119422 346.25058866 352.34115624 C324.20549548 352.32025558 302.16044415 352.28508072 280.11538696 352.24050903 C281.49464731 354.76697452 282.88252084 357.2880502 284.27554321 359.80691528 C284.85108948 360.86440979 284.85108948 360.86440979 285.43826294 361.94326782 C299.81846635 387.83359776 327.50803065 404.11379639 354.11538696 415.24050903 C354.11538696 415.57050903 354.11538696 415.90050903 354.11538696 416.24050903 C269.63538696 416.24050903 185.15538696 416.24050903 98.11538696 416.24050903 C101.90491433 413.39836351 105.58701345 411.57972267 109.86538696 409.67800903 C122.67477101 403.8049099 134.43735161 396.46079212 145.11538696 387.24050903 C145.93265259 386.56761841 146.74991821 385.89472778 147.59194946 385.20144653 C156.55647535 377.56911025 163.25254286 368.84628486 168.77285767 358.50320435 C169.09535744 357.90029572 169.41785721 357.29738708 169.7501297 356.6762085 C170.54023404 355.19854187 171.32804236 353.71964797 172.11538696 352.24050903 C171.20631875 352.24419621 170.29725054 352.24788338 169.3606348 352.25168228 C147.22604028 352.34007602 125.09147625 352.40623948 102.95674229 352.44775772 C92.25247923 352.46837006 81.54833409 352.49646534 70.84414673 352.54226685 C61.51278015 352.58217519 52.18149899 352.6079515 42.85004944 352.61686301 C37.91053595 352.62207097 32.97126681 352.63428399 28.03183174 352.66342926 C23.37873486 352.69066148 18.72598204 352.69893827 14.07281303 352.69293976 C12.36887617 352.69403651 10.66492731 352.70194381 8.96105957 352.71733093 C-7.48616221 352.85852432 -7.48616221 352.85852432 -14.88461304 348.24050903 C-15.53359275 347.86219059 -16.18257246 347.48387215 -16.85121822 347.09408951 C-23.67645896 342.96506035 -27.91550339 335.82740411 -29.88461304 328.24050903 C-30.18398034 324.175831 -30.16293031 320.11945383 -30.15203857 316.04525757 C-30.15656969 314.80578676 -30.1611008 313.56631595 -30.16576922 312.28928542 C-30.17623174 308.8559997 -30.17774039 305.42292364 -30.17538047 301.9896369 C-30.17497195 298.28397977 -30.18601481 294.57835377 -30.19549561 290.87271118 C-30.21209942 283.61503727 -30.21760488 276.35739585 -30.21872036 269.09970453 C-30.21967119 263.19889857 -30.22378323 257.2981033 -30.23012161 251.39730072 C-30.24773284 234.66079217 -30.25696074 217.92430926 -30.25546066 201.18779138 C-30.25538075 200.28576438 -30.25530084 199.38373737 -30.25521851 198.45437622 C-30.25513674 197.55124544 -30.25505498 196.64811467 -30.25497074 195.71761629 C-30.25415802 181.08449324 -30.27329251 166.45147317 -30.30149524 151.81837991 C-30.3302371 136.78670938 -30.3440348 121.75508904 -30.34230769 106.72339034 C-30.3416442 98.28687551 -30.34711812 89.85046862 -30.36866379 81.41397858 C-30.3868928 74.23021351 -30.39120889 67.0466053 -30.37764494 59.86282709 C-30.37112372 56.19975471 -30.37096703 52.53698311 -30.38835144 48.87393951 C-30.40703063 44.89705286 -30.39450531 40.92060322 -30.37908936 36.94369507 C-30.38937648 35.79406792 -30.39966361 34.64444077 -30.41026247 33.45997643 C-30.3290596 23.96767802 -28.18913099 15.83991714 -21.58773804 8.77175903 C-15.36752005 3.17926947 -8.43758552 -0.01559628 0 0 Z " fill="#000000" transform="translate(29.884613037109375,63.759490966796875)"/>
<path d="M0 0 C21.12 0 42.24 0 64 0 C64 63.36 64 126.72 64 192 C95.68 192 127.36 192 160 192 C156.27289652 196.3482874 152.70546946 200.4189645 148.68484497 204.43540955 C148.18560859 204.93550036 147.6863722 205.43559116 147.17200744 205.95083624 C145.52083856 207.60363473 143.86615385 209.25286509 142.21142578 210.90209961 C141.01822274 212.09502021 139.82524058 213.28816179 138.63246155 214.48150635 C135.40994777 217.70430587 132.18437019 220.9240228 128.95821619 224.14317775 C125.5811765 227.51394673 122.20698715 230.88756652 118.83248901 234.26087952 C112.44919492 240.64107123 106.06335701 247.01871052 99.67659175 253.39542729 C92.40254216 260.65828174 85.13134742 267.92399147 77.86038613 275.18993747 C62.91008914 290.12979484 47.95622673 305.06607903 33 320 C29.14259458 318.41218175 26.70267781 315.95165403 23.77349854 313.02073669 C23.25963679 312.50928937 22.74577505 311.99784204 22.21634173 311.4708963 C20.49653578 309.75672404 18.78396849 308.0354994 17.07128906 306.31420898 C15.83960966 305.08360251 14.60749743 303.85342912 13.37498474 302.62365723 C10.02982353 299.28334446 6.69094736 295.93681338 3.3532877 292.58900714 C-0.13613187 289.09081132 -3.63081505 285.59788123 -7.12481689 282.10426331 C-12.98913346 276.23901018 -18.8495631 270.369896 -24.70751953 264.49829102 C-31.4900207 257.70004613 -38.27775269 250.90706038 -45.06849647 244.11704963 C-51.59243731 237.59371802 -58.1135216 231.0675391 -64.63300323 224.53975105 C-67.41213853 221.75707608 -70.19212976 218.97526031 -72.97277069 216.19408989 C-76.24187745 212.92398238 -79.50843535 209.65134999 -82.77299309 206.37670135 C-83.97509232 205.17166898 -85.17805171 203.967494 -86.38190651 202.76421547 C-88.01740665 201.12920222 -89.64982215 199.49117263 -91.28143311 197.85227966 C-92.19803082 196.93400611 -93.11462852 196.01573256 -94.05900192 195.06963253 C-96 193 -96 193 -96 192 C-64.32 192 -32.64 192 0 192 C0 128.64 0 65.28 0 0 Z " fill="#000000" transform="translate(224,0)"/>
</svg>
