<svg version="1.1" xmlns="http://www.w3.org/2000/svg" width="512px" height="512px" transform="rotate(0) scale(1, 1)">
<path d="M0 0 C1.56548584 0.00749268 1.56548584 0.00749268 3.16259766 0.01513672 C21.50829628 0.42495436 35.31268913 7.74173967 48.3125 20.5 C48.951875 21.11488281 49.59125 21.72976562 50.25 22.36328125 C61.22992102 33.80886856 65.91243565 49.64940454 65.8125 65.1875 C65.80677979 66.23188232 65.80105957 67.27626465 65.79516602 68.35229492 C65.50079523 81.22630884 62.26195477 91.72175225 54.765625 102.36328125 C53.15230441 104.52724489 53.15230441 104.52724489 52.3125 107.5 C53.19550781 107.75910156 54.07851563 108.01820312 54.98828125 108.28515625 C69.55891529 113.61002956 81.52876693 128.05102702 88.3125 141.5 C92.79730463 151.63323424 95.44563297 161.06457531 95.55078125 172.1875 C95.558853 173.00822998 95.56692474 173.82895996 95.57524109 174.67456055 C95.58901134 176.40248544 95.59976473 178.13043674 95.60766602 179.85839844 C95.61922254 181.61954763 95.63973194 183.38066082 95.66918945 185.14160156 C95.711905 187.69880742 95.72803498 190.25498156 95.73828125 192.8125 C95.76454338 193.98462036 95.76454338 193.98462036 95.79133606 195.18041992 C95.77072637 200.40031084 94.84345027 203.41506426 91.3125 207.5 C87.23905778 210.54390797 84.25996052 210.86739322 79.22729492 210.84057617 C78.53406128 210.84101425 77.84082764 210.84145233 77.12658691 210.84190369 C74.84842189 210.8398233 72.57100429 210.81652893 70.29296875 210.79296875 C68.70828147 210.7873701 67.12358899 210.78310127 65.53889465 210.78010559 C61.37787416 210.76867794 57.21717025 210.73922892 53.05627441 210.70599365 C48.0586018 210.66983743 43.06082305 210.65612169 38.06305695 210.63863373 C30.47931812 210.60959005 22.89627324 210.552089 15.3125 210.5 C15.6425 231.62 15.9725 252.74 16.3125 274.5 C19.6125 276.15 22.9125 277.8 26.3125 279.5 C35.87870626 286.32035076 42.88192972 295.88727531 45.3125 307.5 C45.5172748 310.22578009 45.46188669 312.76124409 45.3125 315.5 C47.19122803 315.88744385 47.19122803 315.88744385 49.10791016 316.28271484 C54.70611501 317.52908084 60.12630909 319.2312447 65.5859375 320.9765625 C67.73046842 321.65364689 69.87499968 322.3307302 72.01953125 323.0078125 C75.37096174 324.07114749 78.72192473 325.13594362 82.07275391 326.20117188 C85.32605346 327.23396538 88.58092398 328.26168615 91.8359375 329.2890625 C92.84216156 329.61089508 93.84838562 329.93272766 94.88510132 330.26431274 C95.81682159 330.55816864 96.74854187 330.85202454 97.70849609 331.15478516 C98.52740326 331.41522614 99.34631042 331.67566711 100.19003296 331.94400024 C102.43049909 332.62670433 102.43049909 332.62670433 105.3125 332.5 C106.95374395 330.77403957 106.95374395 330.77403957 108.5 328.5 C119.11796549 314.39422048 132.8071134 305.63768172 150.3125 302.5 C169.49582836 300.97429484 186.58643128 303.14201971 201.89453125 315.6015625 C204.44800199 317.82962842 206.89409089 320.12652755 209.3125 322.5 C209.951875 323.11488281 210.59125 323.72976563 211.25 324.36328125 C222.22992102 335.80886856 226.91243565 351.64940454 226.8125 367.1875 C226.80677979 368.23188232 226.80105957 369.27626465 226.79516602 370.35229492 C226.50079523 383.22630884 223.26195477 393.72175225 215.765625 404.36328125 C214.15230441 406.52724489 214.15230441 406.52724489 213.3125 409.5 C214.63701172 409.88865234 214.63701172 409.88865234 215.98828125 410.28515625 C230.55891529 415.61002956 242.52876693 430.05102702 249.3125 443.5 C253.79730463 453.63323424 256.44563297 463.06457531 256.55078125 474.1875 C256.558853 475.00822998 256.56692474 475.82895996 256.57524109 476.67456055 C256.58901134 478.40248544 256.59976473 480.13043674 256.60766602 481.85839844 C256.61922254 483.61954763 256.63973194 485.38066082 256.66918945 487.14160156 C256.711905 489.69880742 256.72803498 492.25498156 256.73828125 494.8125 C256.75578934 495.59391357 256.77329742 496.37532715 256.79133606 497.18041992 C256.77072637 502.40031084 255.84345027 505.41506426 252.3125 509.5 C248.24370437 512.53546347 245.24703881 512.87795799 240.22181702 512.88768005 C239.16820241 512.89575836 239.16820241 512.89575836 238.09330267 512.90399987 C235.74569735 512.91827801 233.39865602 512.91117635 231.05102539 512.90405273 C229.36545865 512.9097564 227.67989577 512.91672064 225.99433899 512.92485046 C221.41994226 512.94279752 216.84573719 512.94161058 212.27131581 512.93590808 C208.4516669 512.93281845 204.63205491 512.93890617 200.81241125 512.94494683 C191.80109776 512.95899554 182.78987906 512.95742789 173.77856445 512.94604492 C164.48367744 512.93456316 155.18907894 512.94863954 145.89422995 512.9754414 C137.91191515 512.9975963 129.92969094 513.00423625 121.94734758 512.99836498 C117.1807457 512.99499372 112.41432877 512.99742171 107.64775276 513.01461601 C103.16526286 513.03007974 98.68320044 513.02613606 94.20072746 513.00731087 C92.55682329 513.00362339 90.91288749 513.00673812 89.26901245 513.01719666 C87.02223796 513.03039822 84.77688048 513.01886843 82.53016663 513.00120544 C81.27380433 513.00099616 80.01744204 513.00078688 78.72300816 513.00057125 C73.77941713 512.2749845 70.62855461 510.08367669 67.46240234 506.27368164 C65.91965966 502.55242906 65.88271924 499.08372955 65.9140625 495.12109375 C65.91119232 494.31317886 65.90832214 493.50526398 65.90536499 492.67286682 C65.90332783 490.96411437 65.90883334 489.25533841 65.92138672 487.54663086 C65.93729936 484.96998852 65.92160336 482.39495001 65.90234375 479.81835938 C65.89035184 470.64560402 66.36852663 462.28572236 69.3125 453.5 C69.87710938 451.81197266 69.87710938 451.81197266 70.453125 450.08984375 C77.90305762 432.27820906 89.93564289 418.20157293 107.3125 409.5 C107.9725 409.5 108.6325 409.5 109.3125 409.5 C109.00957031 408.96632813 108.70664062 408.43265625 108.39453125 407.8828125 C107.01608489 405.43129866 105.66054788 402.96836014 104.3125 400.5 C103.87035156 399.695625 103.42820312 398.89125 102.97265625 398.0625 C96.88698513 386.52007209 95.87890207 376.29916855 96.3125 363.5 C95.41337891 363.30132324 95.41337891 363.30132324 94.49609375 363.09863281 C87.36592792 361.42258743 80.41534371 359.32739503 73.4375 357.109375 C71.97014404 356.64404358 71.97014404 356.64404358 70.47314453 356.16931152 C66.37362754 354.86668453 62.27543207 353.56021638 58.18115234 352.24121094 C55.16525987 351.27146145 52.14555301 350.31449182 49.125 349.359375 C48.19896973 349.05739197 47.27293945 348.75540894 46.31884766 348.4442749 C45.45694824 348.17359192 44.59504883 347.90290894 43.70703125 347.62402344 C42.95268799 347.38214294 42.19834473 347.14026245 41.42114258 346.89105225 C39.01265709 346.44439349 37.60199781 346.66607245 35.3125 347.5 C33.30444327 349.15149077 33.30444327 349.15149077 31.3125 351.1875 C19.68825439 361.90570988 7.73435133 363.23942764 -7.31201172 362.67480469 C-16.38198081 362.00737428 -23.81552692 357.16371408 -30.6875 351.5 C-31.5125 350.489375 -32.3375 349.47875 -33.1875 348.4375 C-35.42938682 346.25961804 -35.42938682 346.25961804 -37.71813965 346.62606812 C-44.29153607 348.08516923 -50.68253125 349.9228612 -57.09375 351.9765625 C-58.663526 352.47172867 -58.663526 352.47172867 -60.26501465 352.97689819 C-63.57409392 354.02133523 -66.88093059 355.07264667 -70.1875 356.125 C-73.52289157 357.18364099 -76.85874497 358.24075495 -80.19567871 359.29452515 C-82.26443025 359.94808426 -84.33225288 360.60459235 -86.39904785 361.26431274 C-87.79190002 361.70509659 -87.79190002 361.70509659 -89.21289062 362.15478516 C-90.0310022 362.41522614 -90.84911377 362.67566711 -91.6920166 362.94400024 C-93.6875 363.5 -93.6875 363.5 -95.6875 363.5 C-95.60048828 364.9540625 -95.60048828 364.9540625 -95.51171875 366.4375 C-94.92520991 380.68051735 -97.94828976 392.60064285 -106.234375 404.36328125 C-107.84769559 406.52724489 -107.84769559 406.52724489 -108.6875 409.5 C-107.36298828 409.88865234 -107.36298828 409.88865234 -106.01171875 410.28515625 C-91.44108471 415.61002956 -79.47123307 430.05102702 -72.6875 443.5 C-68.20269537 453.63323424 -65.55436703 463.06457531 -65.44921875 474.1875 C-65.441147 475.00822998 -65.43307526 475.82895996 -65.42475891 476.67456055 C-65.41098866 478.40248544 -65.40023527 480.13043674 -65.39233398 481.85839844 C-65.38077746 483.61954763 -65.36026806 485.38066082 -65.33081055 487.14160156 C-65.288095 489.69880742 -65.27196502 492.25498156 -65.26171875 494.8125 C-65.24421066 495.59391357 -65.22670258 496.37532715 -65.20866394 497.18041992 C-65.22927363 502.40031084 -66.15654973 505.41506426 -69.6875 509.5 C-73.75629563 512.53546347 -76.75296119 512.87795799 -81.77818298 512.88768005 C-82.83179759 512.89575836 -82.83179759 512.89575836 -83.90669733 512.90399987 C-86.25430265 512.91827801 -88.60134398 512.91117635 -90.94897461 512.90405273 C-92.63454135 512.9097564 -94.32010423 512.91672064 -96.00566101 512.92485046 C-100.58005774 512.94279752 -105.15426281 512.94161058 -109.72868419 512.93590808 C-113.5483331 512.93281845 -117.36794509 512.93890617 -121.18758875 512.94494683 C-130.19890224 512.95899554 -139.21012094 512.95742789 -148.22143555 512.94604492 C-157.51632256 512.93456316 -166.81092106 512.94863954 -176.10577005 512.9754414 C-184.08808485 512.9975963 -192.07030906 513.00423625 -200.05265242 512.99836498 C-204.8192543 512.99499372 -209.58567123 512.99742171 -214.35224724 513.01461601 C-218.83473714 513.03007974 -223.31679956 513.02613606 -227.79927254 513.00731087 C-229.44317671 513.00362339 -231.08711251 513.00673812 -232.73098755 513.01719666 C-234.97776204 513.03039822 -237.22311952 513.01886843 -239.46983337 513.00120544 C-240.72619567 513.00099616 -241.98255796 513.00078688 -243.27699184 513.00057125 C-248.22058287 512.2749845 -251.37144539 510.08367669 -254.53759766 506.27368164 C-256.08034034 502.55242906 -256.11728076 499.08372955 -256.0859375 495.12109375 C-256.08880768 494.31317886 -256.09167786 493.50526398 -256.09463501 492.67286682 C-256.09667217 490.96411437 -256.09116666 489.25533841 -256.07861328 487.54663086 C-256.06270064 484.96998852 -256.07839664 482.39495001 -256.09765625 479.81835938 C-256.10964816 470.64560402 -255.63147337 462.28572236 -252.6875 453.5 C-252.12289062 451.81197266 -252.12289062 451.81197266 -251.546875 450.08984375 C-244.09694238 432.27820906 -232.06435711 418.20157293 -214.6875 409.5 C-214.0275 409.5 -213.3675 409.5 -212.6875 409.5 C-212.99042969 408.96632813 -213.29335937 408.43265625 -213.60546875 407.8828125 C-214.98391511 405.43129866 -216.33945212 402.96836014 -217.6875 400.5 C-218.12964844 399.695625 -218.57179687 398.89125 -219.02734375 398.0625 C-224.18589645 388.2784973 -226.25758452 378.8481162 -226.1875 367.8125 C-226.18250488 366.76884277 -226.17750977 365.72518555 -226.17236328 364.64990234 C-225.76254564 346.30420372 -218.44576033 332.49981087 -205.6875 319.5 C-205.07261719 318.860625 -204.45773438 318.22125 -203.82421875 317.5625 C-192.44313574 306.64445891 -176.71326355 301.89735037 -161.25 302.125 C-160.2401001 302.13587646 -159.2302002 302.14675293 -158.18969727 302.15795898 C-140.98987191 302.52574352 -126.55055156 308.61641338 -114.33203125 320.69921875 C-110.81360594 324.42552738 -107.62918334 328.30499382 -104.6875 332.5 C-97.77588225 331.07464 -91.13310344 329.17136055 -84.4140625 327.0234375 C-82.26953158 326.34635311 -80.12500032 325.6692698 -77.98046875 324.9921875 C-74.62903826 323.92885251 -71.27807527 322.86405638 -67.92724609 321.79882812 C-64.67394654 320.76603462 -61.41907602 319.73831385 -58.1640625 318.7109375 C-57.15783844 318.38910492 -56.15161438 318.06727234 -55.11489868 317.73568726 C-53.71731827 317.29490341 -53.71731827 317.29490341 -52.29150391 316.84521484 C-51.47259674 316.58477386 -50.65368958 316.32433289 -49.80996704 316.05599976 C-47.6875 315.5 -47.6875 315.5 -44.6875 315.5 C-44.790625 314.448125 -44.89375 313.39625 -45 312.3125 C-44.96036826 301.13634829 -38.5215813 291.52717146 -31.03515625 283.79296875 C-26.25495094 279.3501897 -21.85574876 277.58412438 -15.6875 274.5 C-15.3575 253.38 -15.0275 232.26 -14.6875 210.5 C-22.27105469 210.56960937 -22.27105469 210.56960937 -30.0078125 210.640625 C-33.21616645 210.66107009 -36.42443975 210.68032623 -39.6328125 210.6953125 C-44.72217549 210.71919773 -49.81124985 210.74741359 -54.90039062 210.80175781 C-59.00473055 210.84531017 -63.10876083 210.86915688 -67.21331406 210.87950897 C-68.77699532 210.88688357 -70.34066017 210.90128466 -71.90420914 210.92292023 C-74.09943126 210.95208062 -76.29338401 210.95595097 -78.48876953 210.95410156 C-79.73675323 210.96298401 -80.98473694 210.97186646 -82.27053833 210.98101807 C-87.22640621 210.2833626 -90.36759379 208.08831152 -93.53759766 204.27368164 C-95.08034034 200.55242906 -95.11728076 197.08372955 -95.0859375 193.12109375 C-95.09024277 191.90922142 -95.09024277 191.90922142 -95.09463501 190.67286682 C-95.09667217 188.96411437 -95.09116666 187.25533841 -95.07861328 185.54663086 C-95.06270064 182.96998852 -95.07839664 180.39495001 -95.09765625 177.81835938 C-95.10964816 168.64560402 -94.63147337 160.28572236 -91.6875 151.5 C-91.31109375 150.37464844 -90.9346875 149.24929687 -90.546875 148.08984375 C-83.09694238 130.27820906 -71.06435711 116.20157293 -53.6875 107.5 C-53.0275 107.5 -52.3675 107.5 -51.6875 107.5 C-51.99042969 106.96632813 -52.29335937 106.43265625 -52.60546875 105.8828125 C-53.98391511 103.43129866 -55.33945212 100.96836014 -56.6875 98.5 C-57.12964844 97.695625 -57.57179687 96.89125 -58.02734375 96.0625 C-63.18589645 86.2784973 -65.25758452 76.8481162 -65.1875 65.8125 C-65.18250488 64.76884277 -65.17750977 63.72518555 -65.17236328 62.64990234 C-64.76254564 44.30420372 -57.44576033 30.49981087 -44.6875 17.5 C-44.07261719 16.860625 -43.45773438 16.22125 -42.82421875 15.5625 C-31.37797262 4.58194696 -15.53859578 -0.09868185 0 0 Z M-26.6875 43.5 C-33.79424156 52.75609754 -34.55127417 62.21556569 -33.6875 73.5 C-31.73076086 82.85024081 -25.45200963 90.26851093 -17.5625 95.4375 C-8.95192944 100.59275577 1.59860217 100.90502762 11.26171875 98.8828125 C19.97968525 95.789782 26.64093611 89.4030422 31.33984375 81.5546875 C35.49880319 72.76909448 36.09107971 61.37673615 32.875 52.125 C28.30768671 42.62178322 21.04090791 36.27546516 11.3125 32.5 C-2.90214035 27.76178655 -16.89196272 32.85267687 -26.6875 43.5 Z M-54.6875 147.5 C-62.59120148 158.12738719 -63.72457216 167.01901021 -64.6875 180.5 C-21.7875 180.5 21.1125 180.5 65.3125 180.5 C64.13201315 163.97318404 61.46055935 153.11663861 49.625 141.75 C36.09175 130.17604142 19.90741526 130.157428 2.95605469 130.23925781 C0.31682366 130.24998243 -2.32172696 130.23930284 -4.9609375 130.2265625 C-24.51566614 130.20809137 -40.84906073 132.2061812 -54.6875 147.5 Z M-12.5625 309.625 C-14.25234251 313.94348642 -14.34710983 317.9267052 -13.6875 322.5 C-11.52451163 326.90608743 -9.29069521 329.6987497 -4.6875 331.5 C0.35575384 332.18426057 4.14326884 332.0739862 8.75 329.8125 C12.10906012 326.78115306 14.00605631 324.75860352 14.62890625 320.16796875 C14.89463652 314.45048191 14.28097152 310.89749547 10.3125 306.5 C6.47536804 303.11429533 2.67848538 302.98708828 -2.25 303.1484375 C-6.91276146 303.82095117 -9.53940292 306.19882331 -12.5625 309.625 Z M-187.6875 345.5 C-194.79424156 354.75609754 -195.55127417 364.21556569 -194.6875 375.5 C-192.73076086 384.85024081 -186.45200963 392.26851093 -178.5625 397.4375 C-169.95192944 402.59275577 -159.40139783 402.90502762 -149.73828125 400.8828125 C-141.02031475 397.789782 -134.35906389 391.4030422 -129.66015625 383.5546875 C-125.50119681 374.76909448 -124.90892029 363.37673615 -128.125 354.125 C-132.69231329 344.62178322 -139.95909209 338.27546516 -149.6875 334.5 C-163.90214035 329.76178655 -177.89196272 334.85267687 -187.6875 345.5 Z M134.3125 345.5 C127.20575844 354.75609754 126.44872583 364.21556569 127.3125 375.5 C129.26923914 384.85024081 135.54799037 392.26851093 143.4375 397.4375 C152.04807056 402.59275577 162.59860217 402.90502762 172.26171875 400.8828125 C180.97968525 397.789782 187.64093611 391.4030422 192.33984375 383.5546875 C196.49880319 374.76909448 197.09107971 363.37673615 193.875 354.125 C189.30768671 344.62178322 182.04090791 338.27546516 172.3125 334.5 C158.09785965 329.76178655 144.10803728 334.85267687 134.3125 345.5 Z M-215.6875 449.5 C-223.59120148 460.12738719 -224.72457216 469.01901021 -225.6875 482.5 C-182.7875 482.5 -139.8875 482.5 -95.6875 482.5 C-96.86798685 465.97318404 -99.53944065 455.11663861 -111.375 443.75 C-124.90825 432.17604142 -141.09258474 432.157428 -158.04394531 432.23925781 C-160.68317634 432.24998243 -163.32172696 432.23930284 -165.9609375 432.2265625 C-185.51566614 432.20809137 -201.84906073 434.2061812 -215.6875 449.5 Z M106.3125 449.5 C98.40879852 460.12738719 97.27542784 469.01901021 96.3125 482.5 C139.2125 482.5 182.1125 482.5 226.3125 482.5 C225.13201315 465.97318404 222.46055935 455.11663861 210.625 443.75 C197.09175 432.17604142 180.90741526 432.157428 163.95605469 432.23925781 C161.31682366 432.24998243 158.67827304 432.23930284 156.0390625 432.2265625 C136.48433386 432.20809137 120.15093927 434.2061812 106.3125 449.5 Z " fill="#007bff" transform="translate(255.6875,-0.5)"/>
</svg>