<svg xmlns="http://www.w3.org/2000/svg" version="1.0" width="512.000000pt" height="512.000000pt" viewBox="0 0 512.000000 512.000000" preserveAspectRatio="xMidYMid meet">

<g transform="translate(0.000000,512.000000) scale(0.100000,-0.100000)" fill="#ffffff" stroke="none">
<path d="M895 5108 c-27 -5 -88 -27 -134 -49 -151 -71 -266 -214 -306 -380 -13 -56 -15 -302 -15 -1990 0 -1886 0 -1927 20 -2003 25 -100 61 -165 133 -242 68 -73 132 -117 225 -153 l67 -26 863 -3 c620 -2 862 0 857 8 -4 6 -29 43 -56 83 l-50 72 -787 5 c-783 5 -787 5 -841 27 -112 46 -189 122 -233 230 -23 58 -23 62 -26 551 l-3 492 950 0 951 0 26 43 c15 23 43 61 62 85 l34 42 -1011 0 -1011 0 2 1368 3 1367 23 56 c42 106 132 193 242 236 42 17 110 18 1045 18 l1000 0 6 -325 c5 -243 10 -345 22 -405 57 -276 165 -403 388 -459 101 -25 242 -35 482 -36 l217 0 0 -718 0 -718 83 -37 c45 -20 85 -37 90 -37 4 0 7 375 7 833 -1 649 -4 840 -14 868 -15 44 -1076 1194 -1109 1203 -37 10 -2148 5 -2202 -6z m2650 -713 c203 -220 391 -424 419 -454 l51 -53 -265 5 c-285 6 -359 16 -447 61 -89 45 -146 131 -179 271 -12 53 -17 142 -21 360 l-5 290 40 -40 c21 -22 205 -220 407 -440z" fill="#ffffff"/>
<path d="M1260 2870 l0 -410 295 0 295 0 0 105 0 105 -166 0 -165 0 3 48 3 47 133 3 132 3 0 94 0 95 -136 0 -135 0 3 53 3 52 142 3 141 3 11 62 c6 34 13 81 17 105 l7 42 -292 0 -291 0 0 -410z" fill="#ffffff"/>
<path d="M1930 3276 c0 -2 39 -91 86 -197 48 -107 87 -198 87 -204 0 -5 -33 -86 -73 -180 -40 -93 -79 -185 -87 -202 l-13 -33 138 0 139 0 48 115 c26 63 51 115 55 115 5 0 30 -52 56 -115 l48 -115 143 0 c79 0 143 3 143 6 0 3 -38 95 -85 204 -47 109 -85 205 -85 213 0 8 40 100 89 205 l90 192 -143 0 -143 0 -45 -107 c-24 -59 -49 -108 -54 -110 -5 -1 -29 47 -53 107 l-45 110 -148 0 c-81 0 -148 -2 -148 -4z" fill="#ffffff"/>
<path d="M2810 2870 l0 -410 290 0 290 0 0 105 0 105 -160 0 -160 0 0 50 0 50 130 0 130 0 0 95 0 95 -130 0 -130 0 0 55 0 54 142 3 142 3 12 75 c7 41 13 87 13 103 l1 27 -285 0 -285 0 0 -410z" fill="#ffffff"/>
<path d="M3425 2125 c-338 -66 -609 -266 -762 -560 -278 -535 -63 -1185 482 -1458 86 -43 243 -86 357 -99 278 -30 549 50 777 230 178 141 307 340 368 570 23 86 26 116 27 262 0 148 -3 175 -27 264 -105 389 -392 673 -784 777 -101 27 -335 35 -438 14z m380 -535 c17 -19 17 -29 0 -260 -10 -132 -16 -242 -14 -245 3 -2 53 12 111 31 115 40 154 41 202 3 43 -34 36 -74 -27 -150 -78 -93 -355 -377 -401 -411 -48 -35 -79 -35 -126 -3 -40 28 -427 434 -447 469 -30 52 3 109 72 122 30 5 61 -1 145 -30 58 -20 108 -36 111 -36 2 0 -5 110 -15 245 -19 237 -19 245 -1 265 17 19 30 20 195 20 164 0 178 -1 195 -20z" fill="#ffffff"/>
<path d="M1263 1150 c-39 -16 -57 -85 -33 -130 20 -37 57 -40 586 -40 l514 0 0 90 0 90 -522 -1 c-288 0 -533 -4 -545 -9z" fill="#ffffff"/>
</g>
</svg>